<mxfile host="app.diagrams.net" modified="2022-07-21T01:48:01.722Z" agent="5.0 (X11; Linux x86_64) AppleWebKit/537.36 (KHTML, like Gecko) Chrome/103.0.0.0 Safari/537.36" etag="Gi74KhLet9iNFArw5cVF" version="20.1.3" type="github">
  <diagram id="Mrg0uVhDFYMArB_I3nmU" name="Página-1">
    <mxGraphModel dx="1060" dy="461" grid="1" gridSize="10" guides="1" tooltips="1" connect="1" arrows="1" fold="1" page="1" pageScale="1" pageWidth="827" pageHeight="1169" math="0" shadow="0">
      <root>
        <mxCell id="0" />
        <mxCell id="1" parent="0" />
        <mxCell id="oCGFSR7rmfgJK5l97JSx-17" value="Tabela sem normalização" style="shape=table;startSize=30;container=1;collapsible=0;childLayout=tableLayout;" vertex="1" parent="1">
          <mxGeometry x="30" y="50" width="770" height="250" as="geometry" />
        </mxCell>
        <mxCell id="oCGFSR7rmfgJK5l97JSx-18" value="" style="shape=tableRow;horizontal=0;startSize=0;swimlaneHead=0;swimlaneBody=0;top=0;left=0;bottom=0;right=0;collapsible=0;dropTarget=0;fillColor=none;points=[[0,0.5],[1,0.5]];portConstraint=eastwest;" vertex="1" parent="oCGFSR7rmfgJK5l97JSx-17">
          <mxGeometry y="30" width="770" height="44" as="geometry" />
        </mxCell>
        <mxCell id="oCGFSR7rmfgJK5l97JSx-19" value="funcionario_id" style="shape=partialRectangle;html=1;whiteSpace=wrap;connectable=0;overflow=hidden;fillColor=none;top=0;left=0;bottom=0;right=0;pointerEvents=1;" vertex="1" parent="oCGFSR7rmfgJK5l97JSx-18">
          <mxGeometry width="110" height="44" as="geometry">
            <mxRectangle width="110" height="44" as="alternateBounds" />
          </mxGeometry>
        </mxCell>
        <mxCell id="oCGFSR7rmfgJK5l97JSx-20" value="nome" style="shape=partialRectangle;html=1;whiteSpace=wrap;connectable=0;overflow=hidden;fillColor=none;top=0;left=0;bottom=0;right=0;pointerEvents=1;" vertex="1" parent="oCGFSR7rmfgJK5l97JSx-18">
          <mxGeometry x="110" width="110" height="44" as="geometry">
            <mxRectangle width="110" height="44" as="alternateBounds" />
          </mxGeometry>
        </mxCell>
        <mxCell id="oCGFSR7rmfgJK5l97JSx-21" value="sobrenome" style="shape=partialRectangle;html=1;whiteSpace=wrap;connectable=0;overflow=hidden;fillColor=none;top=0;left=0;bottom=0;right=0;pointerEvents=1;" vertex="1" parent="oCGFSR7rmfgJK5l97JSx-18">
          <mxGeometry x="220" width="110" height="44" as="geometry">
            <mxRectangle width="110" height="44" as="alternateBounds" />
          </mxGeometry>
        </mxCell>
        <mxCell id="oCGFSR7rmfgJK5l97JSx-22" value="contato" style="shape=partialRectangle;html=1;whiteSpace=wrap;connectable=0;overflow=hidden;fillColor=none;top=0;left=0;bottom=0;right=0;pointerEvents=1;" vertex="1" parent="oCGFSR7rmfgJK5l97JSx-18">
          <mxGeometry x="330" width="110" height="44" as="geometry">
            <mxRectangle width="110" height="44" as="alternateBounds" />
          </mxGeometry>
        </mxCell>
        <mxCell id="oCGFSR7rmfgJK5l97JSx-23" value="contato" style="shape=partialRectangle;html=1;whiteSpace=wrap;connectable=0;overflow=hidden;fillColor=none;top=0;left=0;bottom=0;right=0;pointerEvents=1;" vertex="1" parent="oCGFSR7rmfgJK5l97JSx-18">
          <mxGeometry x="440" width="110" height="44" as="geometry">
            <mxRectangle width="110" height="44" as="alternateBounds" />
          </mxGeometry>
        </mxCell>
        <mxCell id="oCGFSR7rmfgJK5l97JSx-24" value="data_cadastro" style="shape=partialRectangle;html=1;whiteSpace=wrap;connectable=0;overflow=hidden;fillColor=none;top=0;left=0;bottom=0;right=0;pointerEvents=1;" vertex="1" parent="oCGFSR7rmfgJK5l97JSx-18">
          <mxGeometry x="550" width="110" height="44" as="geometry">
            <mxRectangle width="110" height="44" as="alternateBounds" />
          </mxGeometry>
        </mxCell>
        <mxCell id="oCGFSR7rmfgJK5l97JSx-25" value="setor" style="shape=partialRectangle;html=1;whiteSpace=wrap;connectable=0;overflow=hidden;fillColor=none;top=0;left=0;bottom=0;right=0;pointerEvents=1;" vertex="1" parent="oCGFSR7rmfgJK5l97JSx-18">
          <mxGeometry x="660" width="110" height="44" as="geometry">
            <mxRectangle width="110" height="44" as="alternateBounds" />
          </mxGeometry>
        </mxCell>
        <mxCell id="oCGFSR7rmfgJK5l97JSx-26" value="" style="shape=tableRow;horizontal=0;startSize=0;swimlaneHead=0;swimlaneBody=0;top=0;left=0;bottom=0;right=0;collapsible=0;dropTarget=0;fillColor=none;points=[[0,0.5],[1,0.5]];portConstraint=eastwest;" vertex="1" parent="oCGFSR7rmfgJK5l97JSx-17">
          <mxGeometry y="74" width="770" height="44" as="geometry" />
        </mxCell>
        <mxCell id="oCGFSR7rmfgJK5l97JSx-27" value="12" style="shape=partialRectangle;html=1;whiteSpace=wrap;connectable=0;overflow=hidden;fillColor=none;top=0;left=0;bottom=0;right=0;pointerEvents=1;" vertex="1" parent="oCGFSR7rmfgJK5l97JSx-26">
          <mxGeometry width="110" height="44" as="geometry">
            <mxRectangle width="110" height="44" as="alternateBounds" />
          </mxGeometry>
        </mxCell>
        <mxCell id="oCGFSR7rmfgJK5l97JSx-28" value="Joseph" style="shape=partialRectangle;html=1;whiteSpace=wrap;connectable=0;overflow=hidden;fillColor=none;top=0;left=0;bottom=0;right=0;pointerEvents=1;" vertex="1" parent="oCGFSR7rmfgJK5l97JSx-26">
          <mxGeometry x="110" width="110" height="44" as="geometry">
            <mxRectangle width="110" height="44" as="alternateBounds" />
          </mxGeometry>
        </mxCell>
        <mxCell id="oCGFSR7rmfgJK5l97JSx-29" value="Rodrigues" style="shape=partialRectangle;html=1;whiteSpace=wrap;connectable=0;overflow=hidden;fillColor=none;top=0;left=0;bottom=0;right=0;pointerEvents=1;" vertex="1" parent="oCGFSR7rmfgJK5l97JSx-26">
          <mxGeometry x="220" width="110" height="44" as="geometry">
            <mxRectangle width="110" height="44" as="alternateBounds" />
          </mxGeometry>
        </mxCell>
        <mxCell id="oCGFSR7rmfgJK5l97JSx-30" value="jo@gmail.com" style="shape=partialRectangle;html=1;whiteSpace=wrap;connectable=0;overflow=hidden;fillColor=none;top=0;left=0;bottom=0;right=0;pointerEvents=1;" vertex="1" parent="oCGFSR7rmfgJK5l97JSx-26">
          <mxGeometry x="330" width="110" height="44" as="geometry">
            <mxRectangle width="110" height="44" as="alternateBounds" />
          </mxGeometry>
        </mxCell>
        <mxCell id="oCGFSR7rmfgJK5l97JSx-31" value="&lt;span style=&quot;color: rgb(33, 37, 41); font-family: Verdana, Arial, &amp;quot;\&amp;quot;Helvetica Neue\&amp;quot;&amp;quot;, Helvetica, &amp;quot;sans-serif&amp;quot;; font-size: 16px; text-align: left; background-color: rgb(255, 255, 255);&quot;&gt;(35)998552-1445&lt;/span&gt;" style="shape=partialRectangle;html=1;whiteSpace=wrap;connectable=0;overflow=hidden;fillColor=none;top=0;left=0;bottom=0;right=0;pointerEvents=1;" vertex="1" parent="oCGFSR7rmfgJK5l97JSx-26">
          <mxGeometry x="440" width="110" height="44" as="geometry">
            <mxRectangle width="110" height="44" as="alternateBounds" />
          </mxGeometry>
        </mxCell>
        <mxCell id="oCGFSR7rmfgJK5l97JSx-32" value="&lt;span style=&quot;color: rgb(33, 37, 41); font-family: Verdana, Arial, &amp;quot;\&amp;quot;Helvetica Neue\&amp;quot;&amp;quot;, Helvetica, &amp;quot;sans-serif&amp;quot;; font-size: 16px; text-align: left; background-color: rgb(255, 255, 255);&quot;&gt;2020-05-05 08:50:25&lt;/span&gt;" style="shape=partialRectangle;html=1;whiteSpace=wrap;connectable=0;overflow=hidden;fillColor=none;top=0;left=0;bottom=0;right=0;pointerEvents=1;" vertex="1" parent="oCGFSR7rmfgJK5l97JSx-26">
          <mxGeometry x="550" width="110" height="44" as="geometry">
            <mxRectangle width="110" height="44" as="alternateBounds" />
          </mxGeometry>
        </mxCell>
        <mxCell id="oCGFSR7rmfgJK5l97JSx-33" value="Administração,&amp;nbsp;&lt;br&gt;Vendas" style="shape=partialRectangle;html=1;whiteSpace=wrap;connectable=0;overflow=hidden;fillColor=none;top=0;left=0;bottom=0;right=0;pointerEvents=1;" vertex="1" parent="oCGFSR7rmfgJK5l97JSx-26">
          <mxGeometry x="660" width="110" height="44" as="geometry">
            <mxRectangle width="110" height="44" as="alternateBounds" />
          </mxGeometry>
        </mxCell>
        <mxCell id="oCGFSR7rmfgJK5l97JSx-34" value="" style="shape=tableRow;horizontal=0;startSize=0;swimlaneHead=0;swimlaneBody=0;top=0;left=0;bottom=0;right=0;collapsible=0;dropTarget=0;fillColor=none;points=[[0,0.5],[1,0.5]];portConstraint=eastwest;" vertex="1" parent="oCGFSR7rmfgJK5l97JSx-17">
          <mxGeometry y="118" width="770" height="44" as="geometry" />
        </mxCell>
        <mxCell id="oCGFSR7rmfgJK5l97JSx-35" value="13" style="shape=partialRectangle;html=1;whiteSpace=wrap;connectable=0;overflow=hidden;fillColor=none;top=0;left=0;bottom=0;right=0;pointerEvents=1;" vertex="1" parent="oCGFSR7rmfgJK5l97JSx-34">
          <mxGeometry width="110" height="44" as="geometry">
            <mxRectangle width="110" height="44" as="alternateBounds" />
          </mxGeometry>
        </mxCell>
        <mxCell id="oCGFSR7rmfgJK5l97JSx-36" value="André" style="shape=partialRectangle;html=1;whiteSpace=wrap;connectable=0;overflow=hidden;fillColor=none;top=0;left=0;bottom=0;right=0;pointerEvents=1;" vertex="1" parent="oCGFSR7rmfgJK5l97JSx-34">
          <mxGeometry x="110" width="110" height="44" as="geometry">
            <mxRectangle width="110" height="44" as="alternateBounds" />
          </mxGeometry>
        </mxCell>
        <mxCell id="oCGFSR7rmfgJK5l97JSx-37" value="Freeman" style="shape=partialRectangle;html=1;whiteSpace=wrap;connectable=0;overflow=hidden;fillColor=none;top=0;left=0;bottom=0;right=0;pointerEvents=1;" vertex="1" parent="oCGFSR7rmfgJK5l97JSx-34">
          <mxGeometry x="220" width="110" height="44" as="geometry">
            <mxRectangle width="110" height="44" as="alternateBounds" />
          </mxGeometry>
        </mxCell>
        <mxCell id="oCGFSR7rmfgJK5l97JSx-38" value="andre1990@gmail.com" style="shape=partialRectangle;html=1;whiteSpace=wrap;connectable=0;overflow=hidden;fillColor=none;top=0;left=0;bottom=0;right=0;pointerEvents=1;" vertex="1" parent="oCGFSR7rmfgJK5l97JSx-34">
          <mxGeometry x="330" width="110" height="44" as="geometry">
            <mxRectangle width="110" height="44" as="alternateBounds" />
          </mxGeometry>
        </mxCell>
        <mxCell id="oCGFSR7rmfgJK5l97JSx-39" value="&lt;span style=&quot;color: rgb(33, 37, 41); font-family: Verdana, Arial, &amp;quot;\&amp;quot;Helvetica Neue\&amp;quot;&amp;quot;, Helvetica, &amp;quot;sans-serif&amp;quot;; font-size: 16px; text-align: left; background-color: rgb(255, 255, 255);&quot;&gt;(47)99522-4996&lt;/span&gt;" style="shape=partialRectangle;html=1;whiteSpace=wrap;connectable=0;overflow=hidden;fillColor=none;top=0;left=0;bottom=0;right=0;pointerEvents=1;" vertex="1" parent="oCGFSR7rmfgJK5l97JSx-34">
          <mxGeometry x="440" width="110" height="44" as="geometry">
            <mxRectangle width="110" height="44" as="alternateBounds" />
          </mxGeometry>
        </mxCell>
        <mxCell id="oCGFSR7rmfgJK5l97JSx-40" value="&lt;div style=&quot;text-align: left;&quot;&gt;&lt;font face=&quot;Verdana, Arial, \Helvetica Neue\, Helvetica, sans-serif&quot; color=&quot;#212529&quot;&gt;&lt;span style=&quot;font-size: 16px; background-color: rgb(249, 249, 249);&quot;&gt;5 de fevereiro de 2020&lt;/span&gt;&lt;/font&gt;&lt;/div&gt;" style="shape=partialRectangle;html=1;whiteSpace=wrap;connectable=0;overflow=hidden;fillColor=none;top=0;left=0;bottom=0;right=0;pointerEvents=1;" vertex="1" parent="oCGFSR7rmfgJK5l97JSx-34">
          <mxGeometry x="550" width="110" height="44" as="geometry">
            <mxRectangle width="110" height="44" as="alternateBounds" />
          </mxGeometry>
        </mxCell>
        <mxCell id="oCGFSR7rmfgJK5l97JSx-41" value="Operacional" style="shape=partialRectangle;html=1;whiteSpace=wrap;connectable=0;overflow=hidden;fillColor=none;top=0;left=0;bottom=0;right=0;pointerEvents=1;" vertex="1" parent="oCGFSR7rmfgJK5l97JSx-34">
          <mxGeometry x="660" width="110" height="44" as="geometry">
            <mxRectangle width="110" height="44" as="alternateBounds" />
          </mxGeometry>
        </mxCell>
        <mxCell id="oCGFSR7rmfgJK5l97JSx-42" value="" style="shape=tableRow;horizontal=0;startSize=0;swimlaneHead=0;swimlaneBody=0;top=0;left=0;bottom=0;right=0;collapsible=0;dropTarget=0;fillColor=none;points=[[0,0.5],[1,0.5]];portConstraint=eastwest;" vertex="1" parent="oCGFSR7rmfgJK5l97JSx-17">
          <mxGeometry y="162" width="770" height="44" as="geometry" />
        </mxCell>
        <mxCell id="oCGFSR7rmfgJK5l97JSx-43" value="14" style="shape=partialRectangle;html=1;whiteSpace=wrap;connectable=0;overflow=hidden;fillColor=none;top=0;left=0;bottom=0;right=0;pointerEvents=1;" vertex="1" parent="oCGFSR7rmfgJK5l97JSx-42">
          <mxGeometry width="110" height="44" as="geometry">
            <mxRectangle width="110" height="44" as="alternateBounds" />
          </mxGeometry>
        </mxCell>
        <mxCell id="oCGFSR7rmfgJK5l97JSx-44" value="Cíntia" style="shape=partialRectangle;html=1;whiteSpace=wrap;connectable=0;overflow=hidden;fillColor=none;top=0;left=0;bottom=0;right=0;pointerEvents=1;" vertex="1" parent="oCGFSR7rmfgJK5l97JSx-42">
          <mxGeometry x="110" width="110" height="44" as="geometry">
            <mxRectangle width="110" height="44" as="alternateBounds" />
          </mxGeometry>
        </mxCell>
        <mxCell id="oCGFSR7rmfgJK5l97JSx-45" value="Duval" style="shape=partialRectangle;html=1;whiteSpace=wrap;connectable=0;overflow=hidden;fillColor=none;top=0;left=0;bottom=0;right=0;pointerEvents=1;" vertex="1" parent="oCGFSR7rmfgJK5l97JSx-42">
          <mxGeometry x="220" width="110" height="44" as="geometry">
            <mxRectangle width="110" height="44" as="alternateBounds" />
          </mxGeometry>
        </mxCell>
        <mxCell id="oCGFSR7rmfgJK5l97JSx-46" value="cindy@outlook.com" style="shape=partialRectangle;html=1;whiteSpace=wrap;connectable=0;overflow=hidden;fillColor=none;top=0;left=0;bottom=0;right=0;pointerEvents=1;" vertex="1" parent="oCGFSR7rmfgJK5l97JSx-42">
          <mxGeometry x="330" width="110" height="44" as="geometry">
            <mxRectangle width="110" height="44" as="alternateBounds" />
          </mxGeometry>
        </mxCell>
        <mxCell id="oCGFSR7rmfgJK5l97JSx-47" value="&lt;span style=&quot;color: rgb(33, 37, 41); font-family: Verdana, Arial, &amp;quot;\&amp;quot;Helvetica Neue\&amp;quot;&amp;quot;, Helvetica, &amp;quot;sans-serif&amp;quot;; font-size: 16px; text-align: left; background-color: rgb(255, 255, 255);&quot;&gt;(33)99855-4669&lt;/span&gt;" style="shape=partialRectangle;html=1;whiteSpace=wrap;connectable=0;overflow=hidden;fillColor=none;top=0;left=0;bottom=0;right=0;pointerEvents=1;" vertex="1" parent="oCGFSR7rmfgJK5l97JSx-42">
          <mxGeometry x="440" width="110" height="44" as="geometry">
            <mxRectangle width="110" height="44" as="alternateBounds" />
          </mxGeometry>
        </mxCell>
        <mxCell id="oCGFSR7rmfgJK5l97JSx-48" value="&lt;table style=&quot;box-sizing: border-box; border: 1px solid rgb(222, 226, 230); border-collapse: collapse; display: table; --text-opacity:1; color: rgb(33, 37, 41); width: 957.078px; max-width: 100%; margin-bottom: 1rem; background-color: rgb(249, 249, 249); font-family: Verdana, Arial, &amp;quot;\&amp;quot;Helvetica Neue\&amp;quot;&amp;quot;, Helvetica, &amp;quot;sans-serif&amp;quot;; font-size: 16px; font-style: normal; font-variant-ligatures: normal; font-variant-caps: normal; font-weight: 400; letter-spacing: normal; orphans: 2; text-align: left; text-transform: none; widows: 2; word-spacing: 0px; -webkit-text-stroke-width: 0px; text-decoration-thickness: initial; text-decoration-style: initial; text-decoration-color: initial;&quot; class=&quot;table table-striped table-bordered&quot;&gt;&lt;tbody style=&quot;box-sizing: border-box; border: 0px solid rgb(225, 229, 235);&quot;&gt;&lt;tr style=&quot;box-sizing: border-box; border: 0px solid rgb(225, 229, 235); background-color: rgba(0, 0, 0, 0.05);&quot;&gt;&lt;td style=&quot;box-sizing: border-box; border: 1px solid rgb(222, 226, 230); display: table-cell; width: 133.5px; max-width: 100%; margin-bottom: 1rem; background-color: rgb(255, 255, 255); color: rgb(33, 37, 41); padding: 0.75rem; vertical-align: top;&quot; class=&quot;table&quot;&gt;2020-05-05&lt;br&gt;10:55:35&lt;/td&gt;&lt;/tr&gt;&lt;/tbody&gt;&lt;/table&gt;" style="shape=partialRectangle;html=1;whiteSpace=wrap;connectable=0;overflow=hidden;fillColor=none;top=0;left=0;bottom=0;right=0;pointerEvents=1;" vertex="1" parent="oCGFSR7rmfgJK5l97JSx-42">
          <mxGeometry x="550" width="110" height="44" as="geometry">
            <mxRectangle width="110" height="44" as="alternateBounds" />
          </mxGeometry>
        </mxCell>
        <mxCell id="oCGFSR7rmfgJK5l97JSx-49" value="Estratégico,&lt;br&gt;Vendas" style="shape=partialRectangle;html=1;whiteSpace=wrap;connectable=0;overflow=hidden;fillColor=none;top=0;left=0;bottom=0;right=0;pointerEvents=1;" vertex="1" parent="oCGFSR7rmfgJK5l97JSx-42">
          <mxGeometry x="660" width="110" height="44" as="geometry">
            <mxRectangle width="110" height="44" as="alternateBounds" />
          </mxGeometry>
        </mxCell>
        <mxCell id="oCGFSR7rmfgJK5l97JSx-50" value="" style="shape=tableRow;horizontal=0;startSize=0;swimlaneHead=0;swimlaneBody=0;top=0;left=0;bottom=0;right=0;collapsible=0;dropTarget=0;fillColor=none;points=[[0,0.5],[1,0.5]];portConstraint=eastwest;" vertex="1" parent="oCGFSR7rmfgJK5l97JSx-17">
          <mxGeometry y="206" width="770" height="44" as="geometry" />
        </mxCell>
        <mxCell id="oCGFSR7rmfgJK5l97JSx-51" value="15" style="shape=partialRectangle;html=1;whiteSpace=wrap;connectable=0;overflow=hidden;fillColor=none;top=0;left=0;bottom=0;right=0;pointerEvents=1;" vertex="1" parent="oCGFSR7rmfgJK5l97JSx-50">
          <mxGeometry width="110" height="44" as="geometry">
            <mxRectangle width="110" height="44" as="alternateBounds" />
          </mxGeometry>
        </mxCell>
        <mxCell id="oCGFSR7rmfgJK5l97JSx-52" value="Fernanda" style="shape=partialRectangle;html=1;whiteSpace=wrap;connectable=0;overflow=hidden;fillColor=none;top=0;left=0;bottom=0;right=0;pointerEvents=1;" vertex="1" parent="oCGFSR7rmfgJK5l97JSx-50">
          <mxGeometry x="110" width="110" height="44" as="geometry">
            <mxRectangle width="110" height="44" as="alternateBounds" />
          </mxGeometry>
        </mxCell>
        <mxCell id="oCGFSR7rmfgJK5l97JSx-53" value="Mendes" style="shape=partialRectangle;html=1;whiteSpace=wrap;connectable=0;overflow=hidden;fillColor=none;top=0;left=0;bottom=0;right=0;pointerEvents=1;" vertex="1" parent="oCGFSR7rmfgJK5l97JSx-50">
          <mxGeometry x="220" width="110" height="44" as="geometry">
            <mxRectangle width="110" height="44" as="alternateBounds" />
          </mxGeometry>
        </mxCell>
        <mxCell id="oCGFSR7rmfgJK5l97JSx-54" value="fernandamendes@yahoo.com" style="shape=partialRectangle;html=1;whiteSpace=wrap;connectable=0;overflow=hidden;fillColor=none;top=0;left=0;bottom=0;right=0;pointerEvents=1;" vertex="1" parent="oCGFSR7rmfgJK5l97JSx-50">
          <mxGeometry x="330" width="110" height="44" as="geometry">
            <mxRectangle width="110" height="44" as="alternateBounds" />
          </mxGeometry>
        </mxCell>
        <mxCell id="oCGFSR7rmfgJK5l97JSx-55" value="(33)99200-1556" style="shape=partialRectangle;html=1;whiteSpace=wrap;connectable=0;overflow=hidden;fillColor=none;top=0;left=0;bottom=0;right=0;pointerEvents=1;" vertex="1" parent="oCGFSR7rmfgJK5l97JSx-50">
          <mxGeometry x="440" width="110" height="44" as="geometry">
            <mxRectangle width="110" height="44" as="alternateBounds" />
          </mxGeometry>
        </mxCell>
        <mxCell id="oCGFSR7rmfgJK5l97JSx-56" value="&lt;table style=&quot;border: 1px solid rgb(222, 226, 230); border-collapse: collapse; --text-opacity:1; color: rgb(33, 37, 41); width: 957.078px; max-width: 100%; margin-bottom: 1rem; background-color: rgb(249, 249, 249); font-family: Verdana, Arial, &amp;quot;\&amp;quot;Helvetica Neue\&amp;quot;&amp;quot;, Helvetica, &amp;quot;sans-serif&amp;quot;; font-size: 16px; text-align: left;&quot; class=&quot;table table-striped table-bordered&quot;&gt;&lt;tbody style=&quot;box-sizing: border-box; border: 0px solid rgb(225, 229, 235);&quot;&gt;&lt;tr style=&quot;box-sizing: border-box; border: 0px solid rgb(225, 229, 235);&quot;&gt;&lt;td style=&quot;box-sizing: border-box; border: 1px solid rgb(222, 226, 230); width: 133.5px; max-width: 100%; margin-bottom: 1rem; background-color: rgb(255, 255, 255); padding: 0.75rem; vertical-align: top;&quot; class=&quot;table&quot;&gt;2020-05-05 11:45:40&lt;br&gt;&lt;br&gt;&lt;/td&gt;&lt;/tr&gt;&lt;/tbody&gt;&lt;/table&gt;" style="shape=partialRectangle;html=1;whiteSpace=wrap;connectable=0;overflow=hidden;fillColor=none;top=0;left=0;bottom=0;right=0;pointerEvents=1;" vertex="1" parent="oCGFSR7rmfgJK5l97JSx-50">
          <mxGeometry x="550" width="110" height="44" as="geometry">
            <mxRectangle width="110" height="44" as="alternateBounds" />
          </mxGeometry>
        </mxCell>
        <mxCell id="oCGFSR7rmfgJK5l97JSx-57" value="Marketing" style="shape=partialRectangle;html=1;whiteSpace=wrap;connectable=0;overflow=hidden;fillColor=none;top=0;left=0;bottom=0;right=0;pointerEvents=1;" vertex="1" parent="oCGFSR7rmfgJK5l97JSx-50">
          <mxGeometry x="660" width="110" height="44" as="geometry">
            <mxRectangle width="110" height="44" as="alternateBounds" />
          </mxGeometry>
        </mxCell>
      </root>
    </mxGraphModel>
  </diagram>
</mxfile>
